<?xml version="1.0" encoding="utf-8"?>
<!-- Generator: Adobe Illustrator 20.1.0, SVG Export Plug-In . SVG Version: 6.00 Build 0)  -->
<svg version="1.1" id="text" xmlns="http://www.w3.org/2000/svg" xmlns:xlink="http://www.w3.org/1999/xlink" x="0px" y="0px"
	 viewBox="0 0 225 66.5" style="enable-background:new 0 0 225 66.5;" xml:space="preserve">
<style type="text/css">
	.st0{fill:#92D7E7;}
</style>
<g>
	<path class="st0" d="M8.6,44.1V23.3H12v17.8h7.6v3H8.6z"/>
	<path class="st0" d="M21.8,24.8c0-0.5,0.2-1,0.6-1.4c0.4-0.4,0.8-0.6,1.4-0.6c0.6,0,1,0.2,1.4,0.5c0.4,0.4,0.5,0.8,0.5,1.4
		c0,0.5-0.2,1-0.6,1.4c-0.4,0.4-0.8,0.6-1.4,0.6c-0.5,0-1-0.2-1.4-0.6C22,25.8,21.8,25.4,21.8,24.8z M22.2,44.1V30.7h3.1v13.5H22.2z
		"/>
	<path class="st0" d="M30.1,44.1V33.4h-2.4v-2.7h2.4v-3.6c0-1.8,0.4-3.1,1.1-4c0.7-0.9,1.9-1.3,3.5-1.3c0.3,0,0.7,0,1,0.1
		c0.4,0,0.7,0.1,1.1,0.2v2.8c-0.2-0.1-0.5-0.2-0.7-0.3s-0.5-0.1-0.8-0.1c-0.7,0-1.3,0.2-1.6,0.7c-0.3,0.5-0.5,1.2-0.5,2.3v3.2h3.2
		v2.7h-3.2v10.8H30.1z"/>
	<path class="st0" d="M39.3,44.1V33.4H37v-2.7h2.4v-5.1h3.1v5.1h2.4v2.7h-2.4v10.8H39.3z"/>
	<path class="st0" d="M46.5,40l2.7-1.3c0.3,0.9,0.7,1.6,1.4,2.1c0.7,0.5,1.6,0.7,2.6,0.7c1,0,1.8-0.3,2.4-0.8
		c0.6-0.6,0.9-1.3,0.9-2.2c0-1.2-1-2.3-3-3.3c-0.3-0.1-0.5-0.2-0.7-0.3c-2.3-1.1-3.8-2.1-4.6-3c-0.8-0.9-1.1-2-1.1-3.3
		c0-1.7,0.6-3.1,1.7-4.1c1.2-1.1,2.7-1.6,4.5-1.6c1.5,0,2.8,0.3,3.9,0.9c1,0.6,1.7,1.4,2.1,2.6l-2.6,1.4c-0.4-0.7-0.9-1.1-1.4-1.4
		c-0.5-0.3-1.1-0.5-1.7-0.5c-0.9,0-1.6,0.2-2.2,0.7s-0.8,1.1-0.8,1.9c0,1.3,1.2,2.4,3.5,3.5c0.2,0.1,0.3,0.2,0.4,0.2
		c2.1,0.9,3.5,1.9,4.2,2.8c0.8,0.9,1.2,2,1.2,3.4c0,2-0.6,3.5-1.9,4.7c-1.2,1.2-2.9,1.7-5,1.7c-1.8,0-3.2-0.4-4.4-1.2
		C47.6,42.7,46.8,41.5,46.5,40z"/>
	<path class="st0" d="M64.1,44.1V33.4h-2.4v-2.7h2.4v-5.1h3.1v5.1h2.4v2.7h-2.4v10.8H64.1z"/>
	<path class="st0" d="M84.9,44.1h-3.1v-1.7c-0.5,0.8-1.2,1.4-1.9,1.7c-0.7,0.4-1.6,0.6-2.5,0.6c-1.9,0-3.4-0.7-4.5-2
		c-1.1-1.3-1.6-3.1-1.6-5.4c0-2.2,0.6-3.9,1.7-5.2c1.1-1.3,2.6-2,4.4-2c1.1,0,2,0.2,2.8,0.7c0.8,0.5,1.4,1.1,1.7,2v-2.2h3.1V44.1z
		 M81.9,37.4c0-1.4-0.3-2.5-1-3.3c-0.6-0.8-1.6-1.2-2.7-1.2c-1.2,0-2.1,0.4-2.7,1.2c-0.7,0.8-1,1.9-1,3.3c0,1.4,0.3,2.5,1,3.3
		c0.6,0.8,1.6,1.2,2.7,1.2c1.1,0,2-0.4,2.7-1.3C81.6,39.9,81.9,38.7,81.9,37.4z"/>
	<path class="st0" d="M89.9,44.1V33.4h-2.4v-2.7h2.4v-5.1H93v5.1h2.4v2.7H93v10.8H89.9z"/>
	<path class="st0" d="M97.7,24.8c0-0.5,0.2-1,0.6-1.4c0.4-0.4,0.8-0.6,1.4-0.6c0.6,0,1,0.2,1.4,0.5c0.4,0.4,0.5,0.8,0.5,1.4
		c0,0.5-0.2,1-0.6,1.4c-0.4,0.4-0.8,0.6-1.4,0.6c-0.5,0-1-0.2-1.4-0.6C97.9,25.8,97.7,25.4,97.7,24.8z M98.1,44.1V30.7h3.1v13.5
		H98.1z"/>
	<path class="st0" d="M104.6,37.4c0-1,0.2-1.9,0.6-2.8c0.4-0.9,0.9-1.7,1.6-2.3c0.7-0.7,1.5-1.2,2.4-1.5c0.9-0.4,1.8-0.5,2.8-0.5
		c1,0,2,0.2,2.9,0.5c0.9,0.4,1.7,0.9,2.4,1.6c0.7,0.7,1.3,1.5,1.6,2.3c0.4,0.9,0.6,1.8,0.6,2.7c0,1-0.2,1.9-0.5,2.8
		c-0.4,0.9-0.9,1.6-1.6,2.3c-0.7,0.7-1.6,1.2-2.5,1.6c-0.9,0.4-1.8,0.5-2.8,0.5c-1,0-1.9-0.2-2.8-0.5c-0.9-0.4-1.7-0.9-2.4-1.6
		c-0.7-0.7-1.3-1.5-1.6-2.4S104.6,38.4,104.6,37.4z M116.2,37.5c0-1.3-0.4-2.3-1.2-3.2c-0.8-0.9-1.8-1.3-3-1.3
		c-1.2,0-2.1,0.4-2.9,1.3c-0.8,0.9-1.2,1.9-1.2,3.2c0,1.3,0.4,2.3,1.2,3.2c0.8,0.9,1.8,1.3,2.9,1.3c1.2,0,2.1-0.4,2.9-1.3
		S116.2,38.7,116.2,37.5z"/>
	<path class="st0" d="M122.7,44.1V30.7h2.9v2.2c0.6-0.9,1.3-1.6,2.2-2c0.8-0.4,1.8-0.6,3-0.6c1,0,1.9,0.2,2.6,0.5s1.3,0.8,1.7,1.4
		c0.2,0.4,0.4,0.8,0.5,1.3c0.1,0.5,0.2,1.4,0.2,2.6v8.2h-3.1v-6.9c0-1.8-0.2-2.9-0.6-3.5c-0.4-0.6-1.2-0.9-2.3-0.9
		c-0.7,0-1.4,0.1-1.9,0.4c-0.6,0.3-1,0.6-1.3,1.1c-0.2,0.3-0.4,0.7-0.5,1.2c-0.1,0.5-0.1,1.3-0.1,2.4v6.1H122.7z"/>
	<path class="st0" d="M140.2,42.6c0-0.5,0.2-1,0.5-1.3c0.4-0.4,0.8-0.6,1.3-0.6c0.5,0,1,0.2,1.3,0.6c0.4,0.4,0.5,0.8,0.5,1.3
		c0,0.5-0.2,0.9-0.5,1.3c-0.4,0.4-0.8,0.5-1.3,0.5c-0.5,0-1-0.2-1.3-0.5C140.4,43.5,140.2,43.1,140.2,42.6z"/>
	<path class="st0" d="M158.7,34.5c-0.5-0.5-1-0.9-1.7-1.2c-0.6-0.3-1.3-0.4-2-0.4c-1.3,0-2.3,0.4-3,1.2c-0.8,0.8-1.1,1.9-1.1,3.2
		c0,1.4,0.4,2.5,1.1,3.3c0.8,0.8,1.8,1.2,3.2,1.2c0.7,0,1.4-0.1,2-0.4c0.6-0.3,1.1-0.7,1.5-1.3v3.6c-0.6,0.3-1.2,0.6-1.8,0.7
		c-0.6,0.2-1.3,0.2-2.1,0.2c-2.1,0-3.8-0.7-5.2-2s-2-3.1-2-5.2c0-2.2,0.7-3.9,2.1-5.3c1.4-1.3,3.2-2,5.4-2c0.7,0,1.3,0.1,1.9,0.2
		c0.6,0.1,1.1,0.3,1.6,0.6V34.5z"/>
	<path class="st0" d="M162,44.1v-22h3.1v22H162z"/>
	<path class="st0" d="M168.5,37.4c0-1,0.2-1.9,0.6-2.8c0.4-0.9,0.9-1.7,1.6-2.3c0.7-0.7,1.5-1.2,2.4-1.5c0.9-0.4,1.8-0.5,2.8-0.5
		c1,0,2,0.2,2.9,0.5c0.9,0.4,1.7,0.9,2.4,1.6c0.7,0.7,1.3,1.5,1.6,2.3c0.4,0.9,0.6,1.8,0.6,2.7c0,1-0.2,1.9-0.5,2.8
		c-0.4,0.9-0.9,1.6-1.6,2.3c-0.7,0.7-1.6,1.2-2.5,1.6c-0.9,0.4-1.8,0.5-2.8,0.5c-1,0-1.9-0.2-2.8-0.5c-0.9-0.4-1.7-0.9-2.4-1.6
		c-0.7-0.7-1.3-1.5-1.6-2.4C168.7,39.3,168.5,38.4,168.5,37.4z M180.1,37.5c0-1.3-0.4-2.3-1.2-3.2c-0.8-0.9-1.8-1.3-3-1.3
		c-1.2,0-2.1,0.4-2.9,1.3c-0.8,0.9-1.2,1.9-1.2,3.2c0,1.3,0.4,2.3,1.2,3.2c0.8,0.9,1.8,1.3,2.9,1.3s2.1-0.4,2.9-1.3
		C179.7,39.8,180.1,38.7,180.1,37.5z"/>
	<path class="st0" d="M189.6,30.7v7.6c0,1.3,0.3,2.2,0.8,2.8c0.5,0.6,1.4,0.9,2.6,0.9c1.2,0,2.1-0.3,2.6-0.9
		c0.5-0.6,0.8-1.5,0.8-2.8v-7.6h3.1v6.7c0,2.6-0.5,4.4-1.5,5.6c-1,1.2-2.7,1.7-4.9,1.7c-2.3,0-4-0.6-5-1.7c-1-1.2-1.5-3-1.5-5.6
		v-6.7H189.6z"/>
	<path class="st0" d="M213.3,22.1h3.1v22h-3.1v-1.7c-0.5,0.8-1.2,1.4-1.9,1.7c-0.7,0.4-1.6,0.6-2.5,0.6c-1.9,0-3.4-0.7-4.5-2
		c-1.1-1.3-1.6-3.1-1.6-5.4c0-2.2,0.6-3.9,1.7-5.2c1.1-1.3,2.6-2,4.4-2c1.1,0,2,0.2,2.8,0.7c0.8,0.5,1.4,1.1,1.7,2V22.1z
		 M213.4,37.4c0-1.4-0.3-2.5-1-3.3c-0.6-0.8-1.6-1.2-2.7-1.2s-2.1,0.4-2.7,1.2c-0.7,0.8-1,1.9-1,3.3c0,1.4,0.3,2.5,1,3.3
		c0.6,0.8,1.6,1.2,2.7,1.2c1.1,0,2-0.4,2.7-1.3C213,39.9,213.4,38.8,213.4,37.4z"/>
</g>
</svg>
