<?xml version="1.0" encoding="UTF-8" standalone="no"?>
<!-- Created with Inkscape (http://www.inkscape.org/) -->

<svg
   xmlns:dc="http://purl.org/dc/elements/1.1/"
   xmlns:cc="http://creativecommons.org/ns#"
   xmlns:rdf="http://www.w3.org/1999/02/22-rdf-syntax-ns#"
   xmlns:svg="http://www.w3.org/2000/svg"
   xmlns="http://www.w3.org/2000/svg"
   xmlns:sodipodi="http://sodipodi.sourceforge.net/DTD/sodipodi-0.dtd"
   xmlns:inkscape="http://www.inkscape.org/namespaces/inkscape"
   version="1.1"
   id="svg3939"
   xml:space="preserve"
   width="88"
   height="88"
   viewBox="0 0 88 88"
   sodipodi:docname="LiftStation_Logo.ai.svg"
   inkscape:version="0.92.5 (2060ec1f9f, 2020-04-08)"><metadata
     id="metadata3945"><rdf:RDF><cc:Work
         rdf:about=""><dc:format>image/svg+xml</dc:format><dc:type
           rdf:resource="http://purl.org/dc/dcmitype/StillImage" /><dc:title></dc:title></cc:Work></rdf:RDF></metadata><defs
     id="defs3943"><clipPath
       clipPathUnits="userSpaceOnUse"
       id="clipPath3955"><path
         d="M 13.116,63 C 7.529,63 3,58.471 3,52.884 v 0 -39.768 C 3,7.529 7.529,3 13.116,3 V 3 H 52.884 C 58.471,3 63,7.529 63,13.116 v 0 39.768 C 63,58.471 58.471,63 52.884,63 v 0 z"
         id="path3953"
         inkscape:connector-curvature="0" /></clipPath><radialGradient
       fx="0"
       fy="0"
       cx="0"
       cy="0"
       r="1"
       gradientUnits="userSpaceOnUse"
       gradientTransform="matrix(-36.378731,0,0,36.378731,32.449154,25.468496)"
       spreadMethod="pad"
       id="radialGradient3965"><stop
         style="stop-opacity:1;stop-color:#ffffff"
         offset="0"
         id="stop3961" /><stop
         style="stop-opacity:1;stop-color:#008fd9"
         offset="1"
         id="stop3963" /></radialGradient><clipPath
       clipPathUnits="userSpaceOnUse"
       id="clipPath3975"><path
         d="M 0,66 H 66 V 0 H 0 Z"
         id="path3973"
         inkscape:connector-curvature="0" /></clipPath><clipPath
       clipPathUnits="userSpaceOnUse"
       id="clipPath3987"><path
         d="m 20.035,27.168 c 0,-7.16 5.804,-12.965 12.965,-12.965 v 0 c 7.161,0 12.966,5.805 12.966,12.965 v 0 C 45.966,34.329 33,51.797 33,51.797 v 0 c 0,0 -12.965,-17.468 -12.965,-24.629"
         id="path3985"
         inkscape:connector-curvature="0" /></clipPath><radialGradient
       fx="0"
       fy="0"
       cx="0"
       cy="0"
       r="1"
       gradientUnits="userSpaceOnUse"
       gradientTransform="matrix(-11.555398,-36.485096,-36.485096,11.555398,42.185646,53.287044)"
       spreadMethod="pad"
       id="radialGradient3997"><stop
         style="stop-opacity:1;stop-color:#ffffff"
         offset="0"
         id="stop3993" /><stop
         style="stop-opacity:1;stop-color:#008fd9"
         offset="1"
         id="stop3995" /></radialGradient></defs><sodipodi:namedview
     pagecolor="#ffffff"
     bordercolor="#666666"
     borderopacity="1"
     objecttolerance="10"
     gridtolerance="10"
     guidetolerance="10"
     inkscape:pageopacity="0"
     inkscape:pageshadow="2"
     inkscape:window-width="1920"
     inkscape:window-height="1043"
     id="namedview3941"
     showgrid="false"
     inkscape:zoom="2.6818182"
     inkscape:cx="44"
     inkscape:cy="44"
     inkscape:window-x="0"
     inkscape:window-y="0"
     inkscape:window-maximized="1"
     inkscape:current-layer="g3947" /><g
     id="g3947"
     inkscape:groupmode="layer"
     inkscape:label="LiftStation_Logo"
     transform="matrix(1.3333333,0,0,-1.3333333,0,88)"><g
       id="g3949"><g
         id="g3951"
         clip-path="url(#clipPath3955)"><g
           id="g3957"><g
             id="g3959"><path
               d="M 13.116,63 C 7.529,63 3,58.471 3,52.884 v 0 -39.768 C 3,7.529 7.529,3 13.116,3 V 3 H 52.884 C 58.471,3 63,7.529 63,13.116 v 0 39.768 C 63,58.471 58.471,63 52.884,63 v 0 z"
               style="fill:url(#radialGradient3965);stroke:none"
               id="path3967"
               inkscape:connector-curvature="0" /></g></g></g></g><g
       id="g3969"><g
         id="g3971"
         clip-path="url(#clipPath3975)"><g
           id="g3977"
           transform="translate(52.8844,63)"><path
             d="m 0,0 h -39.769 c -5.586,0 -10.115,-4.529 -10.115,-10.116 v -39.768 c 0,-5.587 4.529,-10.116 10.115,-10.116 H 0 c 5.587,0 10.116,4.529 10.116,10.116 v 39.768 C 10.116,-4.529 5.587,0 0,0 m 0,-2 c 4.475,0 8.116,-3.641 8.116,-8.116 V -49.884 C 8.116,-54.359 4.475,-58 0,-58 h -39.769 c -4.475,0 -8.115,3.641 -8.115,8.116 v 39.768 c 0,4.475 3.64,8.116 8.115,8.116 H 0"
             style="fill:#0071bc;fill-opacity:1;fill-rule:nonzero;stroke:none"
             id="path3979"
             inkscape:connector-curvature="0" /></g></g></g><g
       id="g3981"><g
         id="g3983"
         clip-path="url(#clipPath3987)"><g
           id="g3989"><g
             id="g3991"><path
               d="m 20.035,27.168 c 0,-7.16 5.804,-12.965 12.965,-12.965 v 0 c 7.161,0 12.966,5.805 12.966,12.965 v 0 C 45.966,34.329 33,51.797 33,51.797 v 0 c 0,0 -12.965,-17.468 -12.965,-24.629"
               style="fill:url(#radialGradient3997);stroke:none"
               id="path3999"
               inkscape:connector-curvature="0" /></g></g></g></g></g></svg>