<?xml version="1.0" encoding="utf-8"?>
<!-- Generator: Adobe Illustrator 20.1.0, SVG Export Plug-In . SVG Version: 6.00 Build 0)  -->
<svg version="1.1" id="Layer_1" xmlns="http://www.w3.org/2000/svg" xmlns:xlink="http://www.w3.org/1999/xlink" x="0px" y="0px"
	 viewBox="0 0 555 80" style="enable-background:new 0 0 555 80;" xml:space="preserve">
<style type="text/css">
	.st0{clip-path:url(#SVGID_2_);fill:url(#SVGID_3_);}
	.st1{fill:#0071BC;}
	.st2{fill:url(#SVGID_4_);}
	.st3{fill:#92D7E7;}
</style>
<g>
	<defs>
		<path id="SVGID_1_" d="M63.6,70H23.8c-5.6,0-10.1-4.5-10.1-10.1V20.1c0-5.6,4.5-10.1,10.1-10.1h39.8c5.6,0,10.1,4.5,10.1,10.1
			v39.8C73.7,65.5,69.2,70,63.6,70z"/>
	</defs>
	<clipPath id="SVGID_2_">
		<use xlink:href="#SVGID_1_"  style="overflow:visible;"/>
	</clipPath>
	<radialGradient id="SVGID_3_" cx="43.1709" cy="47.5315" r="36.3787" gradientUnits="userSpaceOnUse">
		<stop  offset="0" style="stop-color:#FFFFFF"/>
		<stop  offset="1" style="stop-color:#008FD9"/>
	</radialGradient>
	<rect x="13.7" y="10" class="st0" width="60" height="60"/>
</g>
<path class="st1" d="M63.6,12c4.5,0,8.1,3.6,8.1,8.1v39.8c0,4.5-3.6,8.1-8.1,8.1H23.8c-4.5,0-8.1-3.6-8.1-8.1V20.1
	c0-4.5,3.6-8.1,8.1-8.1H63.6 M63.6,10H23.8c-5.6,0-10.1,4.5-10.1,10.1v39.8c0,5.6,4.5,10.1,10.1,10.1h39.8c5.6,0,10.1-4.5,10.1-10.1
	V20.1C73.7,14.5,69.2,10,63.6,10L63.6,10z"/>
<radialGradient id="SVGID_4_" cx="52.9074" cy="19.713" r="38.2713" gradientUnits="userSpaceOnUse">
	<stop  offset="0" style="stop-color:#FFFFFF"/>
	<stop  offset="1" style="stop-color:#008FD9"/>
</radialGradient>
<path class="st2" d="M56.7,45.8c0,7.2-5.8,13-13,13s-13-5.8-13-13s13-24.6,13-24.6S56.7,38.7,56.7,45.8z"/>
<g>
	<path class="st3" d="M82.1,63.8V18.3h7.4v38.9H106v6.6H82.1z"/>
	<path class="st3" d="M110.9,21.6c0-1.1,0.4-2.1,1.3-3c0.8-0.8,1.8-1.2,3-1.2c1.2,0,2.2,0.4,3,1.2c0.8,0.8,1.2,1.8,1.2,3
		s-0.4,2.2-1.2,3c-0.8,0.8-1.8,1.2-3,1.2c-1.2,0-2.2-0.4-3-1.3C111.3,23.8,110.9,22.8,110.9,21.6z M111.8,63.8V34.3h6.7v29.4H111.8z
		"/>
	<path class="st3" d="M129,63.8V40.2h-5.2v-5.9h5.2v-7.9c0-3.9,0.8-6.8,2.4-8.7c1.6-1.9,4.1-2.8,7.6-2.8c0.7,0,1.5,0.1,2.2,0.2
		c0.8,0.1,1.5,0.3,2.3,0.5v6.1c-0.5-0.3-1.1-0.5-1.6-0.7s-1.1-0.2-1.7-0.2c-1.6,0-2.8,0.5-3.5,1.5c-0.7,1-1.1,2.7-1.1,5v7h7.1v5.9
		h-7.1v23.5H129z"/>
	<path class="st3" d="M149.2,63.8V40.2H144v-5.9h5.2V23.2h6.7v11.1h5.2v5.9h-5.2v23.5H149.2z"/>
	<path class="st3" d="M164.8,54.7l5.9-2.7c0.6,2,1.6,3.6,3.1,4.6c1.5,1.1,3.4,1.6,5.7,1.6c2.2,0,3.9-0.6,5.2-1.8
		c1.3-1.2,1.9-2.9,1.9-4.9c0-2.7-2.2-5-6.6-7.1c-0.6-0.3-1.1-0.5-1.4-0.7c-5-2.4-8.3-4.7-10-6.6c-1.7-2-2.5-4.4-2.5-7.3
		c0-3.7,1.3-6.7,3.8-9c2.5-2.3,5.8-3.4,9.9-3.4c3.4,0,6.2,0.6,8.4,1.9s3.8,3.2,4.7,5.6l-5.8,3c-0.9-1.4-1.9-2.5-3-3.1
		c-1.1-0.7-2.3-1-3.7-1c-2,0-3.6,0.5-4.7,1.6s-1.8,2.4-1.8,4.2c0,2.7,2.6,5.3,7.7,7.6c0.4,0.2,0.7,0.3,0.9,0.4
		c4.5,2.1,7.6,4.1,9.3,6.1c1.7,2,2.5,4.4,2.5,7.4c0,4.3-1.4,7.7-4.1,10.3c-2.7,2.5-6.4,3.8-11,3.8c-3.9,0-7-0.9-9.5-2.7
		C167.2,60.5,165.6,58,164.8,54.7z"/>
	<path class="st3" d="M203.4,63.8V40.2h-5.2v-5.9h5.2V23.2h6.7v11.1h5.2v5.9h-5.2v23.5H203.4z"/>
	<path class="st3" d="M248.8,63.8H242V60c-1.2,1.7-2.6,3-4.2,3.8c-1.6,0.8-3.4,1.2-5.5,1.2c-4.2,0-7.4-1.4-9.8-4.3
		c-2.4-2.8-3.6-6.7-3.6-11.7c0-4.7,1.2-8.5,3.7-11.4c2.4-2.9,5.6-4.3,9.6-4.3c2.4,0,4.5,0.5,6.2,1.5c1.7,1,3,2.4,3.7,4.3v-4.8h6.7
		V63.8z M242.2,49c0-3-0.7-5.4-2.1-7.1c-1.4-1.7-3.4-2.5-5.9-2.5c-2.5,0-4.5,0.9-6,2.6c-1.5,1.8-2.2,4.2-2.2,7.3
		c0,3.1,0.7,5.5,2.1,7.2c1.4,1.7,3.4,2.5,6,2.5c2.4,0,4.4-0.9,5.9-2.8C241.5,54.4,242.2,52,242.2,49z"/>
	<path class="st3" d="M259.7,63.8V40.2h-5.2v-5.9h5.2V23.2h6.7v11.1h5.2v5.9h-5.2v23.5H259.7z"/>
	<path class="st3" d="M276.8,21.6c0-1.1,0.4-2.1,1.3-3c0.8-0.8,1.8-1.2,3-1.2c1.2,0,2.2,0.4,3,1.2c0.8,0.8,1.2,1.8,1.2,3
		s-0.4,2.2-1.2,3c-0.8,0.8-1.8,1.2-3,1.2c-1.2,0-2.2-0.4-3-1.3C277.2,23.8,276.8,22.8,276.8,21.6z M277.7,63.8V34.3h6.7v29.4H277.7z
		"/>
	<path class="st3" d="M291.9,49.1c0-2.2,0.4-4.2,1.2-6.1c0.8-1.9,2-3.6,3.5-5.1c1.5-1.5,3.2-2.6,5.2-3.4c2-0.8,4-1.2,6.2-1.2
		c2.2,0,4.3,0.4,6.3,1.2c2,0.8,3.7,1.9,5.3,3.5c1.6,1.5,2.7,3.2,3.5,5.1c0.8,1.9,1.2,3.9,1.2,6c0,2.2-0.4,4.2-1.2,6.1
		c-0.8,1.9-2,3.6-3.5,5.1c-1.6,1.6-3.4,2.7-5.4,3.5c-2,0.8-4,1.2-6.2,1.2c-2.1,0-4.2-0.4-6.2-1.2c-2-0.8-3.7-1.9-5.2-3.5
		c-1.6-1.5-2.7-3.2-3.5-5.2S291.9,51.3,291.9,49.1z M317.2,49.2c0-2.7-0.9-5-2.6-6.9c-1.8-1.9-3.9-2.8-6.5-2.8
		c-2.5,0-4.7,0.9-6.4,2.8c-1.8,1.9-2.7,4.2-2.7,6.9c0,2.7,0.9,5,2.7,6.9c1.8,1.9,3.9,2.8,6.4,2.8c2.5,0,4.7-0.9,6.4-2.8
		C316.3,54.2,317.2,51.9,317.2,49.2z"/>
	<path class="st3" d="M331.4,63.8V34.3h6.3v4.8c1.3-2,2.9-3.5,4.8-4.4c1.8-0.9,4-1.4,6.6-1.4c2.2,0,4.1,0.3,5.6,1
		c1.5,0.7,2.8,1.7,3.6,3.1c0.5,0.8,0.9,1.8,1.1,2.8c0.2,1.1,0.3,3,0.3,5.7v17.9h-6.8V48.7c0-3.9-0.5-6.4-1.4-7.7
		c-0.9-1.3-2.6-1.9-5-1.9c-1.6,0-3,0.3-4.2,0.9c-1.2,0.6-2.2,1.4-2.9,2.5c-0.5,0.7-0.8,1.6-1,2.7c-0.2,1.1-0.3,2.9-0.3,5.3v13.4
		H331.4z"/>
	<path class="st3" d="M369.7,60.3c0-1.1,0.4-2.1,1.2-2.9c0.8-0.8,1.7-1.2,2.9-1.2c1.1,0,2.1,0.4,2.9,1.2c0.8,0.8,1.2,1.8,1.2,2.9
		c0,1.1-0.4,2.1-1.2,2.8c-0.8,0.8-1.7,1.2-2.9,1.2c-1.1,0-2.1-0.4-2.9-1.2C370.1,62.4,369.7,61.5,369.7,60.3z"/>
	<path class="st3" d="M410,42.7c-1-1.1-2.2-2-3.6-2.6c-1.4-0.6-2.9-0.9-4.5-0.9c-2.8,0-5,0.9-6.6,2.7c-1.7,1.8-2.5,4.1-2.5,7.1
		c0,3.1,0.8,5.5,2.5,7.2c1.7,1.7,4,2.6,6.9,2.6c1.6,0,3.1-0.3,4.4-0.9c1.3-0.6,2.4-1.5,3.4-2.8v7.8c-1.2,0.7-2.6,1.2-4,1.6
		s-2.9,0.5-4.5,0.5c-4.6,0-8.4-1.5-11.3-4.4c-2.9-2.9-4.4-6.7-4.4-11.4c0-4.7,1.5-8.6,4.5-11.5c3-2.9,7-4.4,11.8-4.4
		c1.5,0,2.9,0.1,4.2,0.4c1.3,0.3,2.5,0.8,3.6,1.4V42.7z"/>
	<path class="st3" d="M417.2,63.8V15.7h6.7v48.1H417.2z"/>
	<path class="st3" d="M431.4,49.1c0-2.2,0.4-4.2,1.2-6.1c0.8-1.9,2-3.6,3.5-5.1c1.5-1.5,3.2-2.6,5.2-3.4c2-0.8,4-1.2,6.2-1.2
		c2.2,0,4.3,0.4,6.3,1.2c2,0.8,3.7,1.9,5.3,3.5c1.6,1.5,2.7,3.2,3.5,5.1c0.8,1.9,1.2,3.9,1.2,6c0,2.2-0.4,4.2-1.2,6.1
		c-0.8,1.9-2,3.6-3.5,5.1c-1.6,1.6-3.4,2.7-5.4,3.5c-2,0.8-4,1.2-6.2,1.2c-2.1,0-4.2-0.4-6.2-1.2c-2-0.8-3.7-1.9-5.2-3.5
		c-1.6-1.5-2.7-3.2-3.5-5.2C431.8,53.3,431.4,51.3,431.4,49.1z M456.7,49.2c0-2.7-0.9-5-2.6-6.9c-1.8-1.9-3.9-2.8-6.5-2.8
		c-2.5,0-4.7,0.9-6.4,2.8c-1.8,1.9-2.7,4.2-2.7,6.9c0,2.7,0.9,5,2.7,6.9c1.8,1.9,3.9,2.8,6.4,2.8s4.7-0.9,6.4-2.8
		C455.8,54.2,456.7,51.9,456.7,49.2z"/>
	<path class="st3" d="M477.5,34.3v16.6c0,2.9,0.6,4.9,1.8,6.1c1.2,1.2,3.1,1.9,5.7,1.9c2.6,0,4.6-0.6,5.7-1.9
		c1.2-1.2,1.8-3.3,1.8-6.1V34.3h6.7v14.6c0,5.6-1.1,9.7-3.4,12.3c-2.3,2.5-5.9,3.8-10.8,3.8c-5,0-8.7-1.3-10.9-3.8
		c-2.3-2.5-3.4-6.6-3.4-12.3V34.3H477.5z"/>
	<path class="st3" d="M529.3,15.7h6.7v48.1h-6.7V60c-1.2,1.7-2.6,3-4.2,3.8c-1.6,0.8-3.4,1.2-5.5,1.2c-4.2,0-7.4-1.4-9.8-4.3
		c-2.4-2.8-3.6-6.7-3.6-11.7c0-4.7,1.2-8.5,3.7-11.4c2.4-2.9,5.6-4.3,9.6-4.3c2.4,0,4.5,0.5,6.2,1.5c1.7,1,3,2.4,3.7,4.3V15.7z
		 M529.5,49c0-3-0.7-5.4-2.1-7.1c-1.4-1.7-3.4-2.5-5.9-2.5s-4.5,0.9-6,2.6c-1.5,1.8-2.2,4.2-2.2,7.3c0,3.1,0.7,5.5,2.1,7.2
		c1.4,1.7,3.4,2.5,6,2.5c2.4,0,4.4-0.9,5.9-2.7C528.8,54.4,529.5,52,529.5,49z"/>
</g>
</svg>
