<svg xmlns="http://www.w3.org/2000/svg" xmlns:xlink="http://www.w3.org/1999/xlink" viewBox="0 0 74.1 60"><defs><style>.cls-1{fill:none;}.cls-2{fill:#d0ecf4;}.cls-3{fill:#92d7e7;}.cls-4{fill:url(#radial-gradient);}.cls-5{clip-path:url(#clip-path);}.cls-6{fill:url(#radial-gradient-2);}.cls-7{fill:#0071bc;}.cls-8{fill:url(#radial-gradient-3);}</style><radialGradient id="radial-gradient" cx="-11.16" cy="17.29" r="4.79" gradientTransform="translate(14.1 0.84) scale(1 0.95)" gradientUnits="userSpaceOnUse"><stop offset="0" stop-color="#fff"/><stop offset="0" stop-color="#008fd9"/></radialGradient><clipPath id="clip-path" transform="translate(14.1)"><rect class="cls-1" width="60" height="60" rx="10.12" ry="10.12"/></clipPath><radialGradient id="radial-gradient-2" cx="43.54" cy="37.53" r="36.38" gradientUnits="userSpaceOnUse"><stop offset="0" stop-color="#fff"/><stop offset="1" stop-color="#008fd9"/></radialGradient><radialGradient id="radial-gradient-3" cx="39.19" cy="9.71" r="38.27" xlink:href="#radial-gradient-2"/></defs><title>LiftStation_Logo</title><g id="swatches"><rect class="cls-2" y="28.51" width="5.87" height="5.53"/><rect class="cls-3" y="21.45" width="5.87" height="5.87"/><rect class="cls-4" y="14.36" width="5.87" height="5.87"/></g><g id="clipping_mask" data-name="clipping mask"><g class="cls-5"><rect class="cls-6" x="14.1" width="60" height="60"/></g></g><g id="border"><path class="cls-7" d="M49.88,2A8.12,8.12,0,0,1,58,10.12V49.88A8.12,8.12,0,0,1,49.88,58H10.12A8.12,8.12,0,0,1,2,49.88V10.12A8.12,8.12,0,0,1,10.12,2H49.88m0-2H10.12A10.12,10.12,0,0,0,0,10.12V49.88A10.12,10.12,0,0,0,10.12,60H49.88A10.12,10.12,0,0,0,60,49.88V10.12A10.12,10.12,0,0,0,49.88,0Z" transform="translate(14.1)"/></g><g id="droplet"><path class="cls-8" d="M43,35.83a13,13,0,0,1-25.93,0C17,28.67,30,11.2,30,11.2S43,28.67,43,35.83Z" transform="translate(14.1)"/></g></svg>